#N canvas 914 134 1117 658 12;
#X obj 275 195 bng 19 250 50 0 empty empty empty 0 -10 0 12 #fcfcfc #000000 #000000;
#X obj 351 402 print;
#X msg 356 275 Hello World;
#X obj 187 107 netreceive 13000;
#X obj 187 148 print Hey;
#X obj 513 201 netsend;
#X msg 498 145 connect localhost 13001;
#X floatatom 508 271 5 0 0 0 - - - 0;
#X msg 183 62 listen 13000;
#X connect 0 0 2 0;
#X connect 2 0 1 0;
#X connect 3 0 4 0;
#X connect 5 0 7 0;
#X connect 6 0 5 0;
#X connect 8 0 3 0;
