#N canvas 113 89 780 500 12;
#X obj 192 169 soundfiler;
#N canvas 0 22 450 278 (subpatch) 0;
#X array audioData 3.85229e+06 float 2;
#X coords 0 1 3.85229e+06 -1 200 140 1 0 0;
#X restore 454 79 graph;
#X obj 192 80 bng 15 250 50 0 empty empty empty 17 7 0 10 #fcfcfc #000000 #000000;
#X msg 192 138 read -resize \$1 audioData;
#X msg 192 107 open prelude.wav;
#X floatatom 191 260 5 0 0 0 - - - 0;
#X obj 191 290 phasor~;
#X obj 191 352 tabread4~ audioData;
#X obj 191 383 dac~;
#X obj 191 321 *~;
#X text 56 261 playback rate ->;
#X obj 194 233 hsl 128 15 0 0.2 0 0 empty empty empty -2 -8 0 10 #fcfcfc #000000 #000000 0 1;
#X connect 0 1 9 1;
#X connect 2 0 4 0;
#X connect 3 0 0 0;
#X connect 4 0 3 0;
#X connect 5 0 6 0;
#X connect 6 0 9 0;
#X connect 7 0 8 0;
#X connect 9 0 7 0;
#X connect 11 0 5 0;
