#N canvas 592 338 922 500 12;
#X obj 498 154 soundfiler;
#N canvas 0 22 450 278 (subpatch) 0;
#X array audioData 3.85229e+06 float 2;
#X coords 0 1 3.85229e+06 -1 200 140 1 0 0;
#X restore 497 240 graph;
#X obj 498 65 bng 15 250 50 0 empty empty empty 17 7 0 10 #fcfcfc #000000 #000000;
#X msg 498 123 read -resize \$1 audioData;
#X msg 498 92 open prelude.wav;
#X floatatom 224 292 5 0 0 0 - - - 0;
#X obj 224 322 phasor~;
#X obj 224 384 tabread4~ audioData;
#X obj 224 415 dac~;
#X obj 224 353 *~;
#X text 104 167 playback rate ->;
#X obj 227 264 hsl 128 15 0 0.2 0 0 empty empty empty -2 -8 0 10 #fcfcfc #000000 #000000 0 1;
#X obj 223 233 line;
#X obj 170 260 line~;
#X obj 305 201 print;
#X obj 223 86 r \$0/to-websocket;
#N canvas 2 50 450 300 messages-to-local 0;
#X obj 14 15 inlet;
#X obj 14 256 outlet;
#X obj 269 258 outlet;
#X obj 14 120 list;
#X obj 14 91 t b a;
#X obj 14 233 list trim;
#X obj 269 212 list trim;
#X obj 14 68 list split 1;
#X obj 269 235 symbol;
#X connect 0 0 7 0;
#X connect 3 0 5 0;
#X connect 4 0 3 0;
#X connect 4 1 6 0;
#X connect 5 0 1 0;
#X connect 6 0 8 0;
#X connect 7 0 4 0;
#X connect 7 1 3 1;
#X connect 8 0 2 0;
#X restore 222 132 pd messages-to-local;
#X obj 223 109 websocket-server 9001;
#X obj 223 166 * 0.04;
#X msg 223 196 \$1 200;
#X obj 347 29 bng 15 250 50 0 empty empty empty 17 7 0 10 #fcfcfc #000000 #000000;
#X text 194 19 bang this before refreshing browser:, f 20;
#X floatatom 44 166 5 0 0 0 - - - 0;
#X connect 0 0 9 1;
#X connect 2 0 4 0;
#X connect 3 0 0 0;
#X connect 4 0 3 0;
#X connect 6 0 9 0;
#X connect 7 0 8 0;
#X connect 9 0 7 0;
#X connect 11 0 5 0;
#X connect 12 0 11 0;
#X connect 13 0 6 0;
#X connect 15 0 17 0;
#X connect 16 0 18 0;
#X connect 16 0 22 0;
#X connect 17 0 16 0;
#X connect 18 0 19 0;
#X connect 18 0 14 0;
#X connect 19 0 13 0;
#X connect 20 0 17 2;
